<svg version="1.1" xmlns="http://www.w3.org/2000/svg" viewBox="0 0 495.795 495.795">
	<g>
		<path
			d="M479.751,134.804L346.7,1.763c-1.711-1.719-4.291-2.235-6.553-1.308c-2.242,0.937-3.711,3.132-3.711,5.561
			v64.328H206.921c-8.215,0-14.863,6.659-14.863,14.866v107.702c0,8.207,6.648,14.865,14.863,14.865h129.516v64.329
			c0,2.429,1.469,4.624,3.711,5.561c2.262,0.926,4.842,0.411,6.553-1.308l133.051-133.05c1.131-1.13,1.774-2.656,1.774-4.252
			C481.525,137.46,480.882,135.935,479.751,134.804z"
		/>
		<path
			d="M288.858,288.019H159.36v-64.33c0-2.428-1.469-4.622-3.711-5.559c-2.261-0.927-4.844-0.412-6.553,1.307
			L16.047,352.478c-1.13,1.13-1.776,2.656-1.776,4.252c0,1.598,0.646,3.124,1.776,4.254l133.05,133.048
			c1.709,1.719,4.292,2.236,6.553,1.308c2.242-0.936,3.711-3.13,3.711-5.56v-64.33h129.498c8.216,0,14.863-6.657,14.863-14.864
			V302.883C303.721,294.678,297.074,288.019,288.858,288.019z"
		/>
	</g>
</svg>
