<?xml version="1.0" encoding="iso-8859-1"?>
<!-- Generator: Adobe Illustrator 19.0.0, SVG Export Plug-In . SVG Version: 6.00 Build 0)  -->
<svg version="1.1" id="Layer_1" xmlns="http://www.w3.org/2000/svg" xmlns:xlink="http://www.w3.org/1999/xlink" x="0px" y="0px"
	 viewBox="0 0 512 512" style="enable-background:new 0 0 512 512;" xml:space="preserve">
<g>
	<g>
		<g>
			<path d="M502.518,37.926h-37.926c-5.243,0-9.481,4.238-9.481,9.482v407.704H47.407c-5.243,0-9.482,4.238-9.482,9.482v37.926
				c0,5.243,4.238,9.482,9.482,9.482h455.111c5.243,0,9.482-4.238,9.482-9.482V47.407C512,42.164,507.762,37.926,502.518,37.926z"/>
			<path d="M436.148,436.148V47.407c0-15.682,12.762-28.444,28.444-28.444h9.482V9.482c0-5.243-4.238-9.482-9.482-9.482H199.111
				v66.37c0,10.458,8.505,18.963,18.963,18.963c10.458,0,18.963-8.505,18.963-18.963c0-5.243,4.238-9.481,9.481-9.481
				c5.243,0,9.482,4.238,9.482,9.481c0,20.916-17.01,37.926-37.926,37.926s-37.926-17.01-37.926-37.926V0H9.482
				C4.238,0,0,4.238,0,9.482v455.111c0,5.243,4.238,9.482,9.482,9.482h9.481v-9.482c0-15.682,12.762-28.444,28.444-28.444H436.148z
				 M208.593,341.333h-37.926c-5.243,0-9.482-4.238-9.482-9.481s4.238-9.482,9.482-9.482h37.926c5.243,0,9.482,4.238,9.482,9.482
				S213.836,341.333,208.593,341.333z M237.037,227.556h-66.37c-5.243,0-9.482-4.238-9.482-9.481c0-5.243,4.238-9.482,9.482-9.482
				h66.37c5.243,0,9.481,4.238,9.481,9.482C246.518,223.317,242.28,227.556,237.037,227.556z M303.407,265.482
				c5.243,0,9.482,4.238,9.482,9.481c0,5.243-4.238,9.482-9.482,9.482h-94.815c-5.243,0-9.482-4.238-9.482-9.482
				c0-5.243,4.238-9.481,9.482-9.481H303.407z M369.778,341.333H265.482c-5.243,0-9.482-4.238-9.482-9.481s4.238-9.482,9.482-9.482
				h104.296c5.243,0,9.482,4.238,9.482,9.482S375.021,341.333,369.778,341.333z M369.778,284.444h-28.444
				c-5.243,0-9.481-4.238-9.481-9.482c0-5.243,4.238-9.481,9.481-9.481h28.444c5.243,0,9.482,4.238,9.482,9.481
				C379.259,280.206,375.021,284.444,369.778,284.444z M369.778,227.556h-75.852c-5.243,0-9.481-4.238-9.481-9.481
				c0-5.243,4.238-9.482,9.481-9.482h75.852c5.243,0,9.482,4.238,9.482,9.482C379.259,223.317,375.021,227.556,369.778,227.556z
				 M331.852,151.704h37.926c5.243,0,9.482,4.238,9.482,9.482c0,5.243-4.238,9.482-9.482,9.482h-37.926
				c-5.243,0-9.482-4.238-9.482-9.482C322.37,155.942,326.609,151.704,331.852,151.704z M227.556,151.704h66.37
				c5.243,0,9.482,4.238,9.482,9.482c0,5.243-4.238,9.482-9.482,9.482h-66.37c-5.243,0-9.481-4.238-9.481-9.482
				C218.074,155.942,222.312,151.704,227.556,151.704z M104.296,151.704h85.333c5.243,0,9.481,4.238,9.481,9.482
				c0,5.243-4.238,9.482-9.481,9.482h-85.333c-5.243,0-9.482-4.238-9.482-9.482C94.815,155.942,99.053,151.704,104.296,151.704z
				 M104.296,208.593h28.444c5.243,0,9.482,4.238,9.482,9.482c0,5.243-4.238,9.481-9.482,9.481h-28.444
				c-5.243,0-9.482-4.238-9.482-9.481C94.815,212.831,99.053,208.593,104.296,208.593z M104.296,265.482h47.407
				c5.243,0,9.481,4.238,9.481,9.481c0,5.243-4.238,9.482-9.481,9.482h-47.407c-5.243,0-9.482-4.238-9.482-9.482
				C94.815,269.72,99.053,265.482,104.296,265.482z M104.296,322.37h28.444c5.243,0,9.482,4.238,9.482,9.482
				s-4.238,9.481-9.482,9.481h-28.444c-5.243,0-9.482-4.238-9.482-9.481S99.053,322.37,104.296,322.37z"/>
		</g>
	</g>
</g>
<g>
</g>
<g>
</g>
<g>
</g>
<g>
</g>
<g>
</g>
<g>
</g>
<g>
</g>
<g>
</g>
<g>
</g>
<g>
</g>
<g>
</g>
<g>
</g>
<g>
</g>
<g>
</g>
<g>
</g>
</svg>
