<svg version="1.1" xmlns="http://www.w3.org/2000/svg" viewBox="0 0 512 512">
<g>
	<g>
		<path
			d="M314.85,363.016l-8.786,8.786l-12.426,0.106l-27.164,0.233l-16.377,0.141v0.124H61.454v-30.367h174.389l0.004-0.524
			l0.233-27.164l0.106-12.426l8.787-8.786l21.955-21.955H61.454v-30.367h235.842l20.245-20.245H61.454v-30.367h265.185v21.268
			l61.454-61.454V0.424H0v511.152h388.094V289.771L314.85,363.016z M326.64,169.961H151.317v-30.367H326.64V169.961z M61.454,88.983
			h265.185v30.367H61.454V88.983z M61.454,139.594h59.495v30.367H61.454V139.594z M61.454,291.428h151.608v30.367H61.454V291.428z"
		/>
	</g>
</g>
<g>
	<g>
		<path d="M506.423,101.568c-3.597-3.597-8.379-5.578-13.466-5.578c-5.086,0-9.868,1.981-13.465,5.577l-17.947,17.947l26.93,26.93
			l17.947-17.947c3.596-3.596,5.577-8.378,5.577-13.465S510.019,105.164,506.423,101.568z"/>
	</g>
</g>
<g>
	<g>
		<polygon points="440.072,140.986 266.446,314.612 266.213,341.775 293.377,341.542 467.004,167.917"/>
	</g>
</g>
</svg>
