<?xml version="1.0" encoding="UTF-8" standalone="no"?>
<!-- Generator: Adobe Illustrator 18.0.0, SVG Export Plug-In . SVG Version: 6.00 Build 0)  -->

<svg
   xmlns:dc="http://purl.org/dc/elements/1.1/"
   xmlns:cc="http://creativecommons.org/ns#"
   xmlns:rdf="http://www.w3.org/1999/02/22-rdf-syntax-ns#"
   xmlns:svg="http://www.w3.org/2000/svg"
   xmlns="http://www.w3.org/2000/svg"
   xmlns:sodipodi="http://sodipodi.sourceforge.net/DTD/sodipodi-0.dtd"
   xmlns:inkscape="http://www.inkscape.org/namespaces/inkscape"
   version="1.1"
   id="Capa_1"
   x="0px"
   y="0px"
   viewBox="0 0 328.249 328.249"
   style="enable-background:new 0 0 328.249 328.249;"
   xml:space="preserve"
   sodipodi:docname="outfits.svg"
   inkscape:version="0.92.4 5da689c313, 2019-01-14"><metadata
   id="metadata43"><rdf:RDF><cc:Work
       rdf:about=""><dc:format>image/svg+xml</dc:format><dc:type
         rdf:resource="http://purl.org/dc/dcmitype/StillImage" /><dc:title /></cc:Work></rdf:RDF></metadata><defs
   id="defs41" /><sodipodi:namedview
   pagecolor="#ffffff"
   bordercolor="#666666"
   borderopacity="1"
   objecttolerance="10"
   gridtolerance="10"
   guidetolerance="10"
   inkscape:pageopacity="0"
   inkscape:pageshadow="2"
   inkscape:window-width="1366"
   inkscape:window-height="731"
   id="namedview39"
   showgrid="false"
   inkscape:snap-global="true"
   inkscape:zoom="1.016772"
   inkscape:cx="132.67603"
   inkscape:cy="248.27659"
   inkscape:window-x="0"
   inkscape:window-y="18"
   inkscape:window-maximized="0"
   inkscape:current-layer="Capa_1" />

<g
   id="g8">
</g>
<g
   id="g10">
</g>
<g
   id="g12">
</g>
<g
   id="g14">
</g>
<g
   id="g16">
</g>
<g
   id="g18">
</g>
<g
   id="g20">
</g>
<g
   id="g22">
</g>
<g
   id="g24">
</g>
<g
   id="g26">
</g>
<g
   id="g28">
</g>
<g
   id="g30">
</g>
<g
   id="g32">
</g>
<g
   id="g34">
</g>
<g
   id="g36">
</g>
<g
   id="g4591"><g
     transform="matrix(0.92103061,0,0,0.92103061,4.2555947e-6,23.481944)"
     style="stroke:none;stroke-width:4.34296098;stroke-miterlimit:4;stroke-dasharray:none"
     id="g6">
	<path
   style="stroke:none;stroke-width:4.34296098;stroke-miterlimit:4;stroke-dasharray:none"
   id="path2"
   d="m 156.597,30.896 h -22.698 c -3.105,0 -5.621,2.517 -5.621,5.621 v 18.334 h -22.02 c -11.256,0 -21.51,6.471 -26.354,16.631 L 5.598,227.327 c -1.382,2.899 -0.196,6.372 2.672,7.819 l 1.086,0.548 -8.672,16.439 c -1.523,2.886 -0.417,6.461 2.469,7.983 l 12.543,6.618 c 2.886,1.523 6.461,0.417 7.983,-2.469 l 8.893,-16.857 1.324,0.668 c 1.406,0.709 3.036,0.828 4.53,0.33 1.494,-0.498 2.727,-1.571 3.426,-2.982 l 52.901,-106.745 -0.031,23.847 c -6.034,3.443 -10.11,9.925 -10.11,17.369 0,6.58 3.192,12.4 8.097,16.045 -8.977,2.181 -15.651,10.251 -15.651,19.899 0,9.033 5.849,16.684 13.96,19.416 -3.932,3.652 -6.406,8.851 -6.406,14.64 0,7.388 4.017,13.824 9.975,17.287 l -0.031,24.257 c -0.002,1.568 0.62,3.073 1.728,4.183 1.108,1.11 2.612,1.733 4.181,1.733 h 56.131 V 30.896 Z"
   inkscape:connector-curvature="0" />
	<path
   style="stroke:none;stroke-width:4.34296098;stroke-miterlimit:4;stroke-dasharray:none"
   id="path4"
   d="m 327.566,252.132 -8.678,-16.449 1.065,-0.538 c 2.868,-1.447 4.055,-4.919 2.672,-7.819 L 248.32,71.483 C 243.476,61.323 233.222,54.852 221.966,54.852 H 199.945 V 36.517 c 0,-3.104 -2.517,-5.621 -5.621,-5.621 h -22.727 v 266.457 h 56.253 c 1.569,0 3.073,-0.624 4.182,-1.734 1.108,-1.11 1.73,-2.616 1.727,-4.184 l -0.038,-24.308 c 5.91,-3.475 9.888,-9.883 9.888,-17.234 0,-5.789 -2.475,-10.988 -6.406,-14.64 8.111,-2.732 13.96,-10.383 13.96,-19.416 0,-9.648 -6.674,-17.718 -15.651,-19.899 4.905,-3.645 8.097,-9.465 8.097,-16.045 0,-7.42 -4.05,-13.881 -10.051,-17.333 l -0.037,-23.777 52.848,106.64 c 0.699,1.411 1.932,2.484 3.426,2.982 1.494,0.498 3.124,0.379 4.53,-0.33 l 1.344,-0.678 8.899,16.868 c 1.523,2.887 5.097,3.992 7.983,2.469 l 12.543,-6.618 c 2.889,-1.523 3.994,-5.098 2.472,-7.984 z"
   inkscape:connector-curvature="0" />
</g><path
     inkscape:connector-curvature="0"
     id="path4567"
     d="m 42.352465,247.41545 c 0,-0.0941 9.525081,-19.38939 21.166846,-42.87848 l 21.166847,-42.70744 0.04416,4.77059 0.04416,4.7706 -3.461959,3.78793 c -5.388254,5.89561 -6.927037,13.28378 -4.397789,21.11515 l 1.181009,3.65678 -2.468443,4.59453 c -3.55527,6.61745 -5.628053,10.74504 -8.841043,17.60541 -3.344932,7.1421 -5.323844,8.89325 -8.636792,7.64275 -1.179277,-0.44513 -2.216071,-0.73653 -2.303988,-0.64755 -0.08792,0.089 -2.075212,3.8095 -4.416213,8.26784 -2.341001,4.45835 -4.636826,8.40325 -5.101832,8.76646 -0.79596,0.62169 -3.97496,1.62574 -3.97496,1.25543 z"
     style="fill:#000000;stroke:#ffffff;stroke-width:2.78177118;stroke-miterlimit:4;stroke-dasharray:none" /><path
     inkscape:connector-curvature="0"
     id="path4569"
     d="m 100.05902,67.627139 c 1.15013,-2.278403 3.04098,-5.224346 4.20188,-6.546541 2.39211,-2.724456 7.81891,-6.38579 10.41762,-7.028509 l 1.7386,-0.429998 -0.21252,9.0738 -0.21252,9.073799 h -9.01211 -9.012104 z"
     style="fill:#000000;stroke:none;stroke-width:2.78177118;stroke-miterlimit:4;stroke-dasharray:none" /><path
     inkscape:connector-curvature="0"
     id="path4573"
     d="m 307.88263,245.80425 c -0.572,-0.66936 -2.85413,-4.65947 -5.07139,-8.8669 -2.21726,-4.20743 -4.27099,-7.80634 -4.56383,-7.99759 -0.29283,-0.19125 -15.95943,-32.70247 -34.81465,-72.24717 C 224.90165,75.882061 227.04512,79.670244 217.05674,74.731707 l -5.28751,-2.614295 -12.73005,-0.240188 -12.73006,-0.240188 v -8.493788 c 0,-6.391661 -0.2527,-8.827886 -1.02104,-9.843732 -0.79496,-1.051031 -1.02595,-3.775286 -1.04317,-12.303169 l -0.0221,-10.953224 h 11.1587 c 10.92025,0 11.19517,0.03648 12.86569,1.706996 1.64434,1.644339 1.707,2.052766 1.707,11.127084 v 9.420089 h 12.10829 c 9.82352,0 12.88754,0.242532 16.23803,1.28532 5.04118,1.568992 9.70195,4.684716 12.73347,8.512329 2.79832,3.533162 72.27738,149.003959 72.27738,151.329729 0,0.9182 -0.83526,2.50472 -1.85614,3.5256 l -1.85614,1.85614 4.44915,8.47364 c 5.71774,10.88974 5.70335,10.9502 -3.81945,16.04616 -7.32875,3.92185 -10.5584,4.57009 -12.34614,2.47804 z"
     style="fill:#000000;stroke:none;stroke-width:2.78177118;stroke-miterlimit:4;stroke-dasharray:none" /><path
     inkscape:connector-curvature="0"
     id="path4575"
     d="m 217.60405,273.02403 c 0,-1.20672 1.16376,-3.08831 3.47262,-5.61456 5.94189,-6.50138 7.20789,-15.57238 3.24058,-23.21918 l -1.75011,-3.37327 2.35273,-1.45407 c 5.51127,-3.40615 9.15043,-11.53121 8.47938,-18.93167 -0.62154,-6.85453 -4.16577,-12.6307 -10.15545,-16.55077 l -1.62952,-1.06647 1.74854,-2.57661 c 5.23779,-7.71831 3.69726,-19.97898 -3.28006,-26.10515 -2.42301,-2.12742 -2.47798,-2.29012 -2.44624,-7.23954 l 0.0325,-5.06321 13.75007,27.81771 c 7.56253,15.29974 13.51147,27.91619 13.21986,28.03655 -0.29161,0.12037 0.51047,1.5822 1.7824,3.24852 2.76593,3.62357 4.18669,8.89416 3.51222,13.02926 -0.65412,4.01032 -3.63229,9.37132 -6.36309,11.4542 l -2.23466,1.70446 -0.21721,12.53137 c -0.27859,16.07268 0.50879,15.18739 -13.50767,15.18739 h -10.00687 z"
     style="fill:#000000;stroke:none;stroke-width:2.78177118;stroke-miterlimit:4;stroke-dasharray:none" /><path
     inkscape:connector-curvature="0"
     id="path4581"
     d="m 170.39218,49.425431 -0.0807,-19.550614 -17.62237,0.126397 c 0,0 -8.35979,-1.475256 -8.35979,5.655152 0,7.130409 0,13.277313 0,13.277313 z"
     style="fill:#000000;stroke:none;stroke-width:1px;stroke-linecap:butt;stroke-linejoin:miter;stroke-opacity:1" /></g></svg>